<svg xmlns="http://www.w3.org/2000/svg" version="1.1" xmlns:xlink="http://www.w3.org/1999/xlink" xmlns:svgjs="http://svgjs.dev/svgjs" width="128" height="128" viewBox="0 0 128 128"><g transform="matrix(0.21822033898305085,0,0,0.21822033898305085,50.15798528925643,12.333870967741944)"><svg viewBox="0 0 42 155" data-background-color="#ffffff" preserveAspectRatio="xMidYMid meet" height="472" width="128" xmlns="http://www.w3.org/2000/svg" xmlns:xlink="http://www.w3.org/1999/xlink"><g id="tight-bounds" transform="matrix(1,0,0,1,-0.18658224925815148,0.25)"><svg viewBox="0 0 42.37316449851632 154.5" height="154.5" width="42.37316449851632"><g><svg></svg></g><g><svg viewBox="0 0 42.37316449851632 154.5" height="154.5" width="42.37316449851632"><g transform="matrix(1,0,0,1,0,47.746371)"><svg viewBox="0 0 42.37316449851632 59.00725799999999" height="59.00725799999999" width="42.37316449851632"><g><svg viewBox="0 0 42.37316449851632 59.00725799999999" height="59.00725799999999" width="42.37316449851632"><g><svg viewBox="0 0 42.37316449851632 59.00725799999999" height="59.00725799999999" width="42.37316449851632"><g id="textblocktransform"><svg viewBox="0 0 42.37316449851632 59.00725799999999" height="59.00725799999999" width="42.37316449851632" id="textblock"><g><svg viewBox="0 0 42.37316449851632 59.00725799999999" height="59.00725799999999" width="42.37316449851632"><g transform="matrix(1,0,0,1,0,0)"><svg width="42.37316449851632" viewBox="1.5 -33.7 24.2 33.7" height="59.00725799999999" data-palette-color="#35185a"><path d="M25.7-33.7L25.7-27.5 17.5-27.5 17.5 0 9.75 0 9.75-27.5 1.5-27.5 1.5-33.7 25.7-33.7Z" opacity="1" transform="matrix(1,0,0,1,0,0)" fill="#35185a" class="wordmark-text-0" data-fill-palette-color="primary" id="text-0"></path></svg></g></svg></g></svg></g></svg></g><g></g></svg></g></svg></g><path d="M0 41.746L0 1 42.373 1 42.373 41.746 37.052 41.746 37.052 6.321 5.321 6.321 5.321 41.746 0 41.746M0 112.754L0 153.5 42.373 153.5 42.373 112.754 37.052 112.754 37.052 148.179 5.321 148.179 5.321 112.754 0 112.754" fill="#35185a" stroke="transparent" data-fill-palette-color="primary"></path></svg></g><defs></defs></svg><rect width="42.37316449851632" height="154.5" fill="none" stroke="none" visibility="hidden"></rect></g></svg></g></svg>