<svg xmlns="http://www.w3.org/2000/svg" version="1.1" xmlns:xlink="http://www.w3.org/1999/xlink" xmlns:svgjs="http://svgjs.dev/svgjs"  width="308.7612359841165"
   height="304.915625"  viewBox="0 0 1000 1012"><g transform="matrix(1,0,0,1,0.8841148851336129,0.40971659919023296)"><svg viewBox="0 0 244 247" data-background-color="#ffffff" preserveAspectRatio="xMidYMid meet" height="1012" width="1000" xmlns="http://www.w3.org/2000/svg" xmlns:xlink="http://www.w3.org/1999/xlink"><g id="tight-bounds" transform="matrix(1,0,0,1,-0.2157240319725986,-0.09999999999999432)"><svg viewBox="0 0 244.43135999999998 247.2" height="247.2" width="244.43135999999998"><g><svg></svg></g><g><svg viewBox="0 0 244.43135999999998 247.2" height="247.2" width="244.43135999999998"><g transform="matrix(1,0,0,1,0,64.64482890886597)"><svg viewBox="0 0 244.43135999999998 117.91034218226802" height="117.91034218226802" width="244.43135999999998"><g><svg viewBox="0 0 244.43135999999998 117.91034218226802" height="117.91034218226802" width="244.43135999999998"><g><svg viewBox="0 0 244.43135999999998 117.91034218226802" height="117.91034218226802" width="244.43135999999998"><g id="textblocktransform"><svg viewBox="0 0 244.43135999999998 117.91034218226802" height="117.91034218226802" width="244.43135999999998" id="textblock"><g><svg viewBox="0 0 244.43135999999998 117.91034218226802" height="117.91034218226802" width="244.43135999999998"><path d="M243.859 25.29C242.71 13.05 239.435 9.648 239.435 9.648 229.38-2.958 216.832-0.241 205.559 1.57 185.656 1.644 165.834 4.336 145.977 5.78 104.298 6.001 62.263 2.378 20.791 11.313 16.896 14.054-4.041 11.851 0.693 26.856 1.934 33.098 6.462 40.025 6.324 45.753 6.944 46.757 7.806 44.456 8.174 45.9 9.461 49.792 11.564 47.956 13.287 50.257 10.886 56.401 12.609 61.517 14.253 66.878 11.357 68.273 7.645 67.612 5.979 72.239 5.807 75.592 4.876 74.956 3.853 74.809 3.106 74.711 1.601 75.078 1.854 76.131 2.715 79.729-0.985 81.809 1.336 85.334-0.261 89.153 2.44 92.457 2.072 96.594 2.026 97.426 2.279 98.136 2.681 98.332 4.462 99.385 1.865 101.441 2.141 103.668 20.412 118.894 40.234 108.368 58.954 115.369 63.814 110.473 60.16 117.107 62.102 116.079 63.619 114.879 64.722 119.848 66.434 117.033 66.699 116.226 66.296 114.316 67.239 114.684 67.733 114.879 68.169 114.83 68.238 113.704 68.342 112.015 67.434 113.068 67.193 112.187 69.801 107.732 69.158 118.331 71.605 117.89 71.49 116.593 70.778 114.733 72.237 114.977 73.685 113.117 73.731 111.575 75.018 115.761 75.064 116.666 75.294 117.303 75.662 117.743 79.684 113.19 83.683 119.359 87.9 117.303 90.485 115.051 92.968 118.527 95.588 117.67 96.507 116.984 97.438 115.761 98.323 117.817 109.159 118.257 120.707 116.421 130.981 117.89 158.433 115.149 187.77 119.016 216.717 115.393 223.543 113.998 230.633 112.015 237.286 110.424 237.286 110.424 242.675 106.067 242.675 86.485S243.825 69.35 243.997 53.758C244.169 38.165 244.974 37.529 243.825 25.29Z" opacity="1" fill="#39cccc" data-fill-palette-color="tertiary"></path><g transform="matrix(1,0,0,1,34.46482176,16.210552)"><svg width="175.50171647999997" viewBox="1.75 -47 96.98999786376953 47.25" height="85.48923818226802" data-palette-color="#ffffff"><path d="M42.05-41.5Q43.6-41.2 44.38-40.45 45.15-39.7 45.15-38.7L45.15-38.7Q45.15-37.05 44.23-36.3 43.3-35.55 41.3-35.7L41.3-35.7Q36.8-36.05 34.27-36.18 31.75-36.3 27.65-36.35L27.65-36.35Q25.8-27.15 24.25-17.85L24.25-17.85Q23.7-14.45 23.1-9.98 22.5-5.5 22.3-2.75L22.3-2.75Q22.2-1.3 21.1-0.53 20 0.25 18.45 0.25L18.45 0.25Q16.8 0.25 15.9-0.55 15-1.35 15-2.65L15-2.65Q15-3.85 15.38-6.63 15.75-9.4 16.25-12.45L16.25-12.45Q16.8-15.5 17.1-17.75L17.1-17.75Q17.65-21.55 18.35-25.3 19.05-29.05 19.75-32.4L19.75-32.4Q19.9-33.15 20.1-34.13 20.3-35.1 20.55-36.3L20.55-36.3Q15.65-36.15 12.85-35.5 10.05-34.85 8.88-33.68 7.7-32.5 7.7-30.65L7.7-30.65Q7.7-28.95 8.7-27.4L8.7-27.4Q8.9-27.05 8.9-26.65L8.9-26.65Q8.9-25.7 7.78-24.88 6.65-24.05 5.45-24.05L5.45-24.05Q4.6-24.05 4.05-24.55L4.05-24.55Q3.05-25.4 2.4-26.98 1.75-28.55 1.75-30.55L1.75-30.55Q1.75-34.8 4.53-37.38 7.3-39.95 12.98-41.15 18.65-42.35 27.55-42.35L27.55-42.35Q33.05-42.35 36.33-42.15 39.6-41.95 42.05-41.5L42.05-41.5ZM58.25-15.35Q58.9-15.35 59.25-14.7 59.6-14.05 59.6-13.05L59.6-13.05Q59.6-10.65 58.15-10.2L58.15-10.2Q55.15-9.15 51.55-9L51.55-9Q50.6-4.8 47.8-2.27 45 0.25 41.45 0.25L41.45 0.25Q38.45 0.25 36.32-1.2 34.2-2.65 33.1-5.05 32-7.45 32-10.25L32-10.25Q32-14.05 33.45-17.03 34.9-20 37.45-21.68 40-23.35 43.1-23.35L43.1-23.35Q46.9-23.35 49.22-20.73 51.55-18.1 51.95-14.25L51.95-14.25Q54.3-14.4 57.55-15.25L57.55-15.25Q57.95-15.35 58.25-15.35L58.25-15.35ZM41.85-5.05Q43.45-5.05 44.62-6.35 45.8-7.65 46.2-10.1L46.2-10.1Q44.65-11.15 43.82-12.85 43-14.55 43-16.45L43-16.45Q43-17.25 43.15-18.05L43.15-18.05 42.9-18.05Q40.9-18.05 39.57-16.13 38.25-14.2 38.25-10.7L38.25-10.7Q38.25-7.95 39.32-6.5 40.4-5.05 41.85-5.05L41.85-5.05ZM74.25-11.15Q74.9-11.15 75.27-10.55 75.65-9.95 75.65-8.9L75.65-8.9Q75.65-6.9 74.7-5.8L74.7-5.8Q72.55-3.15 70.02-1.45 67.5 0.25 64.3 0.25L64.3 0.25Q59.9 0.25 57.77-3.75 55.65-7.75 55.65-14.1L55.65-14.1Q55.65-20.2 57.22-28 58.8-35.8 61.87-41.4 64.95-47 69.2-47L69.2-47Q71.59-47 72.97-44.78 74.34-42.55 74.34-38.4L74.34-38.4Q74.34-32.45 71.05-24.6 67.75-16.75 62.1-9.05L62.1-9.05Q62.45-7 63.25-6.13 64.05-5.25 65.34-5.25L65.34-5.25Q67.4-5.25 68.95-6.43 70.5-7.6 72.9-10.45L72.9-10.45Q73.5-11.15 74.25-11.15L74.25-11.15ZM68.09-42.05Q66.95-42.05 65.5-37.9 64.05-33.75 62.95-27.6 61.85-21.45 61.75-15.8L61.75-15.8Q65.3-21.65 67.4-27.53 69.5-33.4 69.5-38.25L69.5-38.25Q69.5-42.05 68.09-42.05L68.09-42.05ZM76.69 0.25Q74.44 0.25 73.02-1.83 71.59-3.9 71.59-7L71.59-7Q71.59-10.75 72.09-13.88 72.59-17 73.74-20.5L73.74-20.5Q74.24-22 75.14-22.65 76.04-23.3 77.99-23.3L77.99-23.3Q79.09-23.3 79.52-22.95 79.94-22.6 79.94-21.9L79.94-21.9Q79.94-21.5 79.39-19.2L79.39-19.2Q78.89-17.35 78.59-15.85L78.59-15.85Q77.59-10.6 77.59-8.85L77.59-8.85Q77.59-7.8 77.84-7.38 78.09-6.95 78.64-6.95L78.64-6.95Q79.39-6.95 80.52-8.45 81.64-9.95 82.92-13 84.19-16.05 85.39-20.5L85.39-20.5Q85.79-22 86.62-22.65 87.44-23.3 89.09-23.3L89.09-23.3Q90.24-23.3 90.69-23.03 91.14-22.75 91.14-22L91.14-22Q91.14-20.75 89.89-15.15L89.89-15.15Q88.49-8.75 88.49-7.25L88.49-7.25Q88.49-6.3 88.89-5.78 89.29-5.25 89.94-5.25L89.94-5.25Q90.94-5.25 92.32-6.48 93.69-7.7 95.99-10.45L95.99-10.45Q96.59-11.15 97.34-11.15L97.34-11.15Q97.99-11.15 98.37-10.55 98.74-9.95 98.74-8.9L98.74-8.9Q98.74-6.9 97.79-5.8L97.79-5.8Q95.64-3.15 93.17-1.45 90.69 0.25 87.54 0.25L87.54 0.25Q85.14 0.25 84.02-1.6 82.89-3.45 82.89-6.8L82.89-6.8Q82.04-3.4 80.34-1.58 78.64 0.25 76.69 0.25L76.69 0.25Z" opacity="1" transform="matrix(1,0,0,1,0,0)" fill="#ffffff" class="wordmark-text-0" data-fill-palette-color="quaternary" id="text-0"></path></svg></g></svg></g></svg></g></svg></g><g></g></svg></g></svg></g><path d="M0 58.645L0 1 244.431 1 244.431 58.645 236.722 58.645 236.722 8.71 7.71 8.71 7.71 58.645 0 58.645M0 188.555L0 246.2 244.431 246.2 244.431 188.555 236.722 188.555 236.722 238.49 7.71 238.49 7.71 188.555 0 188.555" fill="#010c80" stroke="transparent" data-fill-palette-color="primary"></path></svg></g><defs></defs></svg><rect width="244.43135999999998" height="247.2" fill="none" stroke="none" visibility="hidden"></rect></g></svg></g></svg>